<?xml version="1.0" encoding="utf-8"?>
<!-- Generator: Adobe Illustrator 26.3.1, SVG Export Plug-In . SVG Version: 6.00 Build 0)  -->
<svg version="1.1" xmlns="http://www.w3.org/2000/svg" xmlns:xlink="http://www.w3.org/1999/xlink" x="0px" y="0px"
	 viewBox="0 0 132 62.7" style="enable-background:new 0 0 132 62.7;" xml:space="preserve">
<style type="text/css">
	.st0{fill:#58BABA;}
	.st1{fill:#663974;}
	.st2{enable-background:new    ;}
	.st3{fill:#9035FF;}
	.st4{fill:#FDF9C6;}
	.st5{fill:#577195;}
	.st6{fill:#FF90AD;}
	.st7{fill:#EBC97C;}
	.st8{fill:#FDFD47;}
	.st9{fill:#B22DA8;}
	.st10{fill:#2DB28E;}
	.st11{fill:#2D8EB2;}
	.st12{fill:#D55638;}
	.st13{fill:#AD2DB2;}
</style>
<g id="TILE">
	<path id="Path_3" class="st0" d="M17,0h17c2.8,0,5,2.2,5,5v17c0,2.8-2.2,5-5,5H17c-2.8,0-5-2.2-5-5V5C12,2.2,14.3,0,17,0z"/>
	<path id="Path_3-2" class="st0" d="M44,0h17c2.8,0,5,2.2,5,5v17c0,2.8-2.2,5-5,5H44c-2.8,0-5-2.2-5-5V5C39,2.2,41.3,0,44,0z"/>
	<path id="Path_3-3" class="st0" d="M71,0h17c2.8,0,5,2.2,5,5v17c0,2.8-2.2,5-5,5H71c-2.8,0-5-2.2-5-5V5C66,2.2,68.3,0,71,0z"/>
	<path id="Path_3-4" class="st0" d="M98,0h17c2.8,0,5,2.2,5,5v17c0,2.8-2.2,5-5,5H98c-2.8,0-5-2.2-5-5V5C93,2.2,95.3,0,98,0z"/>
	<g>
		<path id="Path_6-2_00000117637389249076612720000006993548235079200183_" class="st1" d="M19,8h12.1v2.3h-4.8V23h-2.6V10.3H19V8z"
			/>
		<path id="Path-2_00000146471410619723411690000009967252000272506513_" class="st1" d="M50.7,8h2.6v15h-2.6V8z"/>
		<g class="st2">
			<path class="st1" d="M76.4,7.3h2.8v13.3h8V23H76.4V7.3z"/>
		</g>
		<g class="st2">
			<path class="st1" d="M100.8,7.3h11.3v2.4h-8.6v4.1h7.9V16h-7.9v4.6h8.7V23h-11.5V7.3z"/>
		</g>
		<path id="Path_7-5_00000111149370546479562340000011080178214635978415_" class="st3" d="M33,2.9c0.1,0,0.3,0,0.4,0
			c0.1,0,0.3-0.1,0.4-0.1c0.1-0.1,0.2-0.1,0.3-0.2c0.1-0.1,0.1-0.2,0.2-0.3h0.6v4.2h-0.8v-3h-1V2.9z"/>
		<path id="Path_7-6_00000105401392772701647880000008549791268210034095_" class="st3" d="M60,2.9c0.1,0,0.3,0,0.4,0
			c0.1,0,0.3-0.1,0.4-0.1c0.1-0.1,0.2-0.1,0.3-0.2c0.1-0.1,0.1-0.2,0.2-0.3h0.6v4.2h-0.8v-3h-1V2.9z"/>
		<path id="Path_7-7_00000110441235104654372100000009935828887594110352_" class="st3" d="M87,2.9c0.1,0,0.3,0,0.4,0
			c0.1,0,0.3-0.1,0.4-0.1c0.1-0.1,0.2-0.1,0.3-0.2c0.1-0.1,0.1-0.2,0.2-0.3h0.6v4.2h-0.8v-3h-1V2.9z"/>
		<path id="Path_7-8_00000183968357738125356540000015652255789431290282_" class="st3" d="M114,2.9c0.1,0,0.3,0,0.4,0
			c0.1,0,0.3-0.1,0.4-0.1c0.1-0.1,0.2-0.1,0.3-0.2c0.1-0.1,0.1-0.2,0.2-0.3h0.6v4.2h-0.8v-3h-1V2.9z"/>
	</g>
	<g>
		<g class="st2">
			<path class="st4" d="M99.8,6.3h11.3v2.4h-8.6v4.1h7.9V15h-7.9v4.6h8.7V22H99.8V6.3z"/>
		</g>
		<path id="Path_6-2" class="st4" d="M18,7h12.1v2.3h-4.8V22h-2.6V9.3H18V7z"/>
		<path id="Path-2" class="st4" d="M49.7,7h2.6v15h-2.6V7z"/>
		<g class="st2">
			<path class="st4" d="M75.4,6.3h2.8v13.3h8V22H75.4V6.3z"/>
		</g>
		<path id="Path_7-5" class="st4" d="M32.7,2.5c0.1,0,0.3,0,0.4,0c0.1,0,0.3-0.1,0.4-0.1c0.1-0.1,0.2-0.1,0.3-0.2
			c0.1-0.1,0.1-0.2,0.2-0.3h0.6V6h-0.8V3h-1V2.5z"/>
		<path id="Path_7-6" class="st4" d="M59.7,2.5c0.1,0,0.3,0,0.4,0c0.1,0,0.3-0.1,0.4-0.1c0.1-0.1,0.2-0.1,0.3-0.2
			c0.1-0.1,0.1-0.2,0.2-0.3h0.6V6h-0.8V3h-1V2.5z"/>
		<path id="Path_7-7" class="st4" d="M86.7,2.5c0.1,0,0.3,0,0.4,0c0.1,0,0.3-0.1,0.4-0.1c0.1-0.1,0.2-0.1,0.3-0.2
			c0.1-0.1,0.1-0.2,0.2-0.3h0.6V6h-0.8V3h-1V2.5z"/>
		<path id="Path_7-8" class="st4" d="M113.7,2.5c0.1,0,0.3,0,0.4,0c0.1,0,0.3-0.1,0.4-0.1c0.1-0.1,0.2-0.1,0.3-0.2
			c0.1-0.1,0.1-0.2,0.2-0.3h0.6V6h-0.8V3h-1V2.5z"/>
	</g>
	<path class="st5" d="M34,25.4H17c-2.8,0-5-2.2-5-5V22c0,2.8,2.2,5,5,5h17c2.8,0,5-2.2,5-5v-1.6C39,23.1,36.8,25.4,34,25.4z"/>
	<path class="st5" d="M61,25.4H44c-2.8,0-5-2.2-5-5V22c0,2.8,2.2,5,5,5h17c2.8,0,5-2.2,5-5v-1.6C66,23.1,63.8,25.4,61,25.4z"/>
	<path class="st5" d="M88,25.4H71c-2.8,0-5-2.2-5-5V22c0,2.8,2.2,5,5,5h17c2.8,0,5-2.2,5-5v-1.6C93,23.1,90.8,25.4,88,25.4z"/>
	<path class="st5" d="M115,25.4H98c-2.8,0-5-2.2-5-5V22c0,2.8,2.2,5,5,5h17c2.8,0,5-2.2,5-5v-1.6C120,23.1,117.8,25.4,115,25.4z"/>
</g>
<g id="Party">
	<g>
		<path class="st6" d="M77.4,35.5c1.1-1.3,2-2.7,2.7-4.2c0.1-0.2,0.2-0.5,0.3-0.8c0.1-0.3,0.2-0.6,0.2-0.9c0-0.3,0-0.6,0-0.8
			c0-0.2-0.2-0.5-0.3-0.6c-0.4-0.4-0.9-0.7-1.3-1.1c-0.5-0.4-1-0.7-1.5-1c-0.5-0.3-1.1-0.6-1.7-0.8c-0.6-0.2-1.2-0.3-1.8-0.4
			c-1.5-0.2-3-0.2-4.5,0c-1.8,0.2-3.6,0.6-5.4,1.1c-1.9,0.5-3.8,1.2-5.6,1.9c-1.9,0.8-3.7,1.6-5.4,2.5c-1.6,0.8-3.1,1.8-4.6,2.8
			c-1.2,0.9-2.3,1.8-3.3,3c-0.5,0.5-0.8,1.1-1.1,1.7c-0.1,0.3-0.1,0.7,0.1,1.1c0.1,0.1,0.2,0.2,0.4,0.4c0.2,0.2,0.5,0.4,0.7,0.6
			c0.3,0.2,0.5,0.4,0.7,0.6s0.4,0.2,0.4,0.2c1.1-0.2,2.2-0.3,3.3-0.3c0.9,0,1.5,0.1,1.9,0.1c-0.2,0.5-0.5,0.9-0.9,1.3
			c-0.4,0.4-0.8,0.8-1.3,1.2c-0.5,0.4-1,0.8-1.5,1.1s-1,0.7-1.5,1c-0.1,0.1-0.2,0.3-0.2,0.4c0,0.2,0,0.5,0.1,0.7
			c0.1,0.3,0.2,0.5,0.4,0.7c0.2,0.2,0.6,0.4,0.9,0.4c0.7,0.1,1.4,0.5,2,0.9c0.6,0.5,1.1,1.1,1.5,1.8c0.5,0.7,0.9,1.5,1.3,2.3
			c0.4,0.8,0.8,1.7,1.2,2.5c0.3,0.6,0.7,1.1,1.3,1.4c0.6,0.4,1.4,0.6,2.2,0.5c0.1,0,0.2,0,0.3-0.1c0.1-0.1,0.2-0.1,0.2-0.2
			c0-0.1,0.1-0.2,0.1-0.2c0-0.1,0-0.2-0.1-0.2c-0.2-0.6-0.2-1.2-0.2-1.8c0-0.9,0.1-1.8,0.3-2.8c0.1-1,0.3-2,0.6-3
			c0.2-0.9,0.5-1.8,0.8-2.7c1-0.1,2-0.3,3-0.6c1.3-0.4,2.6-0.8,3.8-1.4c1.4-0.6,2.8-1.3,4.1-2.1c1.4-0.8,2.8-1.8,4-2.8
			C75.2,38,76.4,36.8,77.4,35.5z M70.7,37.3c-1.1,1.1-2.3,2-3.6,3c-1.2,0.9-2.5,1.7-3.9,2.4c-1.2,0.7-2.5,1.2-3.9,1.7
			c0.3-0.8,0.7-1.6,1.1-2.5c0.5-0.9,0.9-1.9,1.4-2.8c0.5-1,1-1.9,1.4-2.8s0.9-1.8,1.2-2.6c0.2-0.3,0.3-0.6,0.2-1
			c-0.1-0.2-0.4-0.4-0.9-0.7c-0.2-0.1-0.4-0.2-0.7-0.3c-0.2-0.1-0.5-0.2-0.7-0.4c-0.5-0.2-1.1-0.1-1.5,0.3c-1.1,1.4-2.1,3-3,4.6
			c-0.9,1.7-1.7,3.5-2.4,5.3c-0.7,1.8-1.2,3.7-1.6,5.6c-0.4,1.7-0.6,3.5-0.6,5.3c-0.1-0.4-0.3-0.9-0.5-1.5c-0.2-0.6-0.5-1.2-0.8-1.7
			c-0.3-0.6-0.7-1.1-1.2-1.5c-0.5-0.5-1.1-0.8-1.8-1c0.3-0.2,0.6-0.5,1.1-0.9c0.5-0.4,0.9-0.8,1.4-1.2c0.5-0.4,0.9-0.8,1.3-1.2
			c0.3-0.3,0.6-0.6,0.8-1c0.2-0.4,0.2-1-0.2-1.3c-0.4-0.5-0.9-1-1.4-1.4c-0.2-0.1-0.4-0.2-0.6-0.2c-0.3-0.1-0.6-0.1-1-0.1
			c-0.4,0-0.7,0-1.1,0c-0.4,0-0.7,0-1.1,0c1.8-1.8,3.8-3.4,6-4.8c2.3-1.6,4.6-2.9,7.1-4.1c2.4-1.1,5-2,7.6-2.6
			c2.4-0.6,4.8-0.8,7.3-0.6c0.4,0,0.8,0.1,1.2,0.4c0.2,0.2,0.2,0.6,0,0.8c-0.4,1-0.9,1.9-1.4,2.7c-0.7,1.1-1.5,2.1-2.4,3
			C72.8,35.3,71.8,36.3,70.7,37.3z"/>
		<path class="st6" d="M113.1,26.2c6.4-2,11.9-3.3,18.6-3.8c0.4,0,0.3-0.1,0-0.1c-6.3,0-11.5,0.8-17.7,2.2c1.2-2.3,2.8-5.6,4.1-5.2
			c0.8,0.3-1.1-1.6-3-1.1c-0.5,0.2-0.9,0.5-1.2,1c-0.8,0.9-1.6,2.2-3.7,6.4c-3.9,1.2-7.7,2.9-7.3,4.5c0.3,0.9,1.2,1.5,2.2,1.5
			c-1-0.4,0.8-2.5,4.1-3.8c-1,2-1.8,3.8-2.5,5.4c-0.8,1.9-1.4,3.5-2,4.9c-1.6,1.8-3.4,3.3-4.8,3.7c0.7-3,3.2-6.2,3.9-7.1
			c0.2-0.3-1.5-1.6-1.9-1.5c-1.1,0.5-2.1,1.3-2.9,2.3c-2.8,2.8-5.2,5.9-7.2,9.3c0.6-1.7,1.4-3.3,2.2-4.8c0.8-1.6,1.8-3.3,2.4-3.3
			c0.3,0,0.4,0.1,0.4,0c-0.4-1.1-1.5-1.8-2.6-1.9c-0.2,0-0.3,0.1-0.5,0.3c-1.2,1.6-2.2,3.3-2.9,5c-0.3,0.5-0.5,1-0.7,1.6
			c-2.1,2.8-5.4,7-7.2,7.9c0-0.4,0-0.9,0.1-1.3c0.7-2.5,3.2-7,3.5-6.7c0.1-0.5-1.5-2.2-2.2-1.7c-1.2,1.3-2.3,2.6-3.3,4
			c-1.6,1.9-6,6.4-7.1,7c-0.1,0.1-0.2,0.1-0.3,0c-0.3-0.1,0.6-2.6,2.4-5.7c0.6-1.1,1.3-2.1,2.1-3c2-2.4,4.3-4.4,6.4-4.8
			c0.8-0.3,1.6,0.1,1.9,0.8c0.1,0.1,0.1,0.3,0.1,0.4c0.1,0.5,0,0.9-0.2,1.4c0,0,0,0.1,0.1,0c0.3-0.5,0.5-1.2,0.4-1.8
			c-0.3-1.7-2.2-1.9-3.6-1.7C76.5,37.6,69.7,47.1,70.4,51c0.4,0.9,1.1,1.7,2,2.1c0.1,0,0.2,0.1,0.3,0.1c1.5-0.3,7.5-7.5,8.3-8.8
			c-0.7,1.3-1.1,2.8-1.4,4.3c-0.1,0.5-0.1,0.9-0.1,1.4c0.2,0.7,0.8,1.2,1.5,1.5c0.2,0.1,0.4,0.1,0.6,0.1c1.6-0.3,4.7-4.3,7.2-8
			c-0.4,1.2-0.8,2.4-1.2,3.6c-0.3,0.6-0.3,1.3-0.2,1.9c0.4,1,1.5,1.9,2.5,1.5c-0.9-0.2,0.7-3.8,2.2-6.1c1.7-2.8,3.8-5.3,6.4-7.4
			c-0.7,1.2-1.5,3.5-1.3,4.5c0.1,0.4,1.4,1.5,2,1.4c1.5-0.3,3.5-2.2,4.9-3.9c-1.3,3.7-1.8,5.7-1.6,6.5c0,0.2,0.1,0.4,0.2,0.5
			c0.4,0.5,0.9,0.9,1.5,1.2c0.4,0.2,0.8,0.1,1.2-0.1c1.4-0.8,4.3-4.7,6.4-7.8c-0.7,2.1-1.2,4-1,5c0.3,0.9,1.1,1.5,2,1.5l0.3-0.1
			c2.1-0.8,6.2-7.1,9.2-11.4c-4,6.7-7.2,17.1-8.4,21.5c-0.4,1.4-0.7,2.9-0.8,4.4c0,0.7,0.9,2.5,2.3,2.2c0.1,0,0.3-0.1,0.4-0.2
			c0.1-1.8,3.5-10.2,7.9-15.2c0,0,0-0.2-0.2-0.2c-1,0.5-5.4,6.2-7.5,10.6c1.4-4.4,5.3-15.6,7.5-19.6c1.2-2.2,2.4-4.4,3.6-6.3l0,0
			c0.4-0.6,0.8-1,1.1-1c0.3,0,0.4,0.1,0.4,0c-0.4-1.1-1.5-1.8-2.6-1.9c-0.2,0-0.4,0.1-0.5,0.3c-1.7,1.9-4,5.5-5.5,7.7
			c-1.4,2-4.5,5.8-6.1,6.9c-0.2-1,1-4.5,2.4-7.2c0.9-1.8,2.1-3.8,2.7-3.9c0.3,0,0.4,0.1,0.4,0c-0.4-1.1-1.5-1.9-2.6-1.9
			c-0.2,0-0.4,0.1-0.5,0.3c-1.2,1.5-2.1,3-2.9,4.7c-0.3,0.5-0.5,1.1-0.7,1.6c-2.2,2.9-5.9,7.9-7.3,8c0.5-2.5,2.3-7.5,4.6-12.8
			C111.2,30.1,112.1,28.1,113.1,26.2z"/>
	</g>
</g>
<g id="Popper">
	<g id="Group_10-2" transform="matrix(0.999, 0.035, -0.035, 0.999, 2.017, 1.55)">
		<path id="Path_8" class="st7" d="M42.2,56.1c-1.9-0.5-3.9-1-5.8-1.6c-1-0.3-2-0.5-3-0.8c1.3-0.7,2.6-1.3,3.8-2
			c1.3-0.8,2.4-1.8,3.2-3c0.1,0.2,0.2,0.3,0.2,0.4c0.8,1.7,1.7,3.4,2.5,5.2c0.4,0.8,0.3,1.2-0.5,1.8L42.2,56.1z"/>
		<path id="Path_9" class="st7" d="M35.4,38.3c-1.2-2.3-2.3-4.6-3.4-6.9c-0.4-0.8-1.2-1.3-2.1-1.4c-1,0-2,0.3-2.9,0.8
			c-2.2,1.2-4.1,2.8-5.7,4.7c-2.3,2.4-4,5.2-5.3,8.3c-0.4,1-0.6,2.2-0.6,3.3c0.1,1.8,2.1,2.8,3.7,2.5c3.7-0.7,7.2-2.2,10.4-4.2
			c2.2-1.4,4.2-3.1,5.7-5.2C35.8,39.8,35.8,39,35.4,38.3 M30.2,32.8c0,0.7-0.2,1.3-0.3,2c-0.7,2.1-1.8,4-3.2,5.7
			c-1.7,2.4-3.8,4.4-6.1,6c-0.7,0.4-1.5,0.8-2.2,1.1l-0.1-0.1c-0.5,0.1-0.8-0.1-0.7-0.6c0.1-0.9,0.3-1.7,0.6-2.5
			c1.2-2.9,2.9-5.4,5.1-7.7c1.3-1.5,2.8-2.8,4.5-3.7c0.6-0.3,1.2-0.5,1.8-0.7c0.2-0.1,0.5,0,0.6,0.2C30.2,32.6,30.2,32.7,30.2,32.8"
			/>
		<path id="Path_10" class="st7" d="M37,41.6c0.8,1.6,1.5,3.1,2.2,4.6c0,0.2,0,0.4-0.1,0.5c-0.8,1.4-2,2.6-3.5,3.4
			c-2,1.1-4.1,2-6.4,2.5c-0.1,0-0.3,0-0.4,0c-1.9-0.5-3.8-1-5.8-1.5c-0.1,0-0.1-0.1-0.2-0.1C28.4,49,33.3,46.3,37,41.6"/>
		<path id="Path_11" class="st8" d="M19.8,28.1c-0.5,0-1,0-1.5,0c-1-0.1-1.8-1-1.7-2c0-0.2,0.1-0.3,0.1-0.5c0.2-0.5,0.5-1.1,0.8-1.6
			c-0.4-0.1-0.8-0.1-1.1-0.2c-0.7-0.1-0.8-0.2-0.7-0.9c0-0.3,0-0.6,0.1-0.8c0-0.3,0.2-0.5,0.5-0.5c0,0,0,0,0,0
			c0.8,0,1.6,0.1,2.3,0.5c1,0.4,1.5,1.6,1.1,2.6c0,0.1-0.1,0.1-0.1,0.2c-0.2,0.3-0.3,0.7-0.5,1c0.4,0,0.7,0,1.1,0
			c1.1-0.1,2,0.7,2.1,1.7c0,0.4,0,0.8-0.3,1.2c-0.2,0.4-0.4,0.8-0.7,1.2c0.4,0.1,0.8,0.1,1.2,0.1c0.6,0.1,0.8,0.2,0.7,0.9
			c0,0.3,0,0.6-0.1,0.8c0,0.3-0.2,0.5-0.5,0.5c0,0,0,0-0.1,0c-0.8,0-1.5-0.1-2.2-0.4c-1-0.4-1.6-1.5-1.2-2.5c0-0.1,0.1-0.2,0.2-0.3
			C19.4,28.7,19.6,28.4,19.8,28.1"/>
		<path id="Path_12" class="st9" d="M11.3,38.3c0.3-0.3,0.6-0.5,0.9-0.7c0.9-0.8,2.2-0.7,2.9,0.2c0.1,0.1,0.1,0.2,0.2,0.3
			c0.5,0.7,0.8,1.4,0.9,2.3c0.1,0.3-0.1,0.6-0.4,0.7c0,0,0,0,0,0c-0.3,0.1-0.7,0.2-1,0.3c-0.5,0.1-0.7,0-0.9-0.5
			c-0.1-0.3-0.2-0.7-0.3-1c0-0.1-0.1-0.2-0.1-0.2c-0.1,0.1-0.2,0.2-0.3,0.2c-0.3,0.2-0.6,0.5-0.9,0.7c-0.9,0.7-2.1,0.6-2.8-0.3
			c-0.2-0.3-0.4-0.6-0.4-1C9,38.8,9,38.4,8.9,38c-0.3,0.3-0.6,0.5-0.9,0.7c-0.9,0.8-2.2,0.7-2.9-0.2c-0.1-0.1-0.2-0.2-0.2-0.3
			c-0.4-0.7-0.7-1.4-0.9-2.2c-0.1-0.3,0.1-0.6,0.3-0.7c0,0,0,0,0,0c0.4-0.1,0.7-0.2,1.1-0.3c0.4-0.1,0.6,0,0.7,0.4
			c0.1,0.4,0.3,0.9,0.4,1.4c0.4-0.4,0.8-0.7,1.1-1c0.8-0.7,2.1-0.6,2.8,0.2c0.2,0.3,0.4,0.6,0.5,1C11.2,37.5,11.3,37.9,11.3,38.3"/>
		<path id="Path_13" class="st10" d="M4.1,27.1c2.7-0.1,5.4,0.5,7.8,1.8c2.7,1.3,5,3.1,7,5.3c0.4,0.4,0.4,0.6-0.1,0.9
			c-0.2,0.2-0.5,0.4-0.7,0.6c-0.3,0.3-0.5,0.2-0.8-0.1c-1-1-2.1-2-3.2-2.9c-2.4-1.9-5.2-3-8.2-3.4c-0.6-0.1-1.1-0.1-1.7-0.1
			c-0.4,0-0.6-0.1-0.6-0.5c0-0.3-0.1-0.7-0.1-1C3.5,27.2,3.6,27.1,4.1,27.1"/>
		<path id="Path_14" class="st11" d="M13.1,46.2l-1.7,1c-0.4,0.2-0.8,0.1-1.1-0.3l-1-1.7c-0.2-0.4-0.1-0.8,0.3-1.1l1.7-1
			c0.4-0.2,0.8-0.1,1.1,0.3l1,1.7C13.6,45.5,13.4,46,13.1,46.2"/>
		<path id="Path_15" class="st12" d="M27.6,27.3l-1.9-0.5c-0.4-0.1-0.7-0.5-0.6-1l0.5-1.9c0.1-0.4,0.5-0.7,1-0.6l1.9,0.5
			c0.4,0.1,0.7,0.5,0.6,1l-0.5,1.9C28.4,27.2,28,27.4,27.6,27.3"/>
		<path id="Path_16" class="st13" d="M10.9,26.2L9,25.7c-0.4-0.1-0.7-0.5-0.6-1L9,22.8c0.1-0.4,0.5-0.7,1-0.6l1.9,0.5
			c0.4,0.1,0.7,0.5,0.6,1l-0.5,1.9C11.8,26.1,11.3,26.3,10.9,26.2"/>
	</g>
</g>
</svg>
