<svg id="Logo" xmlns="http://www.w3.org/2000/svg" xmlns:xlink="http://www.w3.org/1999/xlink" width="138.33" height="72.491" viewBox="0 0 138.33 72.491">
  <defs>
    <filter id="Path_3" x="8.885" y="0" width="27" height="27" filterUnits="userSpaceOnUse">
      <feOffset dy="-2" input="SourceAlpha"/>
      <feGaussianBlur result="blur"/>
      <feFlood flood-color="#577195" result="color"/>
      <feComposite operator="out" in="SourceGraphic" in2="blur"/>
      <feComposite operator="in" in="color"/>
      <feComposite operator="in" in2="SourceGraphic"/>
    </filter>
    <filter id="Path_6" x="14.827" y="7.006" width="13.138" height="15.994" filterUnits="userSpaceOnUse">
      <feOffset dx="1" dy="1" input="SourceAlpha"/>
      <feGaussianBlur result="blur-2"/>
      <feFlood flood-color="#663974"/>
      <feComposite operator="in" in2="blur-2"/>
      <feComposite in="SourceGraphic"/>
    </filter>
    <filter id="Path_7" x="29.535" y="1.8" width="2.282" height="4.7" filterUnits="userSpaceOnUse">
      <feOffset dx="0.5" dy="0.5" input="SourceAlpha"/>
      <feGaussianBlur result="blur-3"/>
      <feFlood flood-color="#663974"/>
      <feComposite operator="in" in2="blur-3"/>
      <feComposite in="SourceGraphic"/>
    </filter>
    <filter id="Path_3-2" x="35.885" y="0" width="27" height="27" filterUnits="userSpaceOnUse">
      <feOffset dy="-2" input="SourceAlpha"/>
      <feGaussianBlur result="blur-4"/>
      <feFlood flood-color="#577195" result="color-2"/>
      <feComposite operator="out" in="SourceGraphic" in2="blur-4"/>
      <feComposite operator="in" in="color-2"/>
      <feComposite operator="in" in2="SourceGraphic"/>
    </filter>
    <filter id="Path" x="46.573" y="7.006" width="3.625" height="15.994" filterUnits="userSpaceOnUse">
      <feOffset dx="1" dy="1" input="SourceAlpha"/>
      <feGaussianBlur result="blur-5"/>
      <feFlood flood-color="#663974"/>
      <feComposite operator="in" in2="blur-5"/>
      <feComposite in="SourceGraphic"/>
    </filter>
    <filter id="Path_7-2" x="56.535" y="1.8" width="2.282" height="4.7" filterUnits="userSpaceOnUse">
      <feOffset dx="0.5" dy="0.5" input="SourceAlpha"/>
      <feGaussianBlur result="blur-6"/>
      <feFlood flood-color="#663974"/>
      <feComposite operator="in" in2="blur-6"/>
      <feComposite in="SourceGraphic"/>
    </filter>
    <filter id="Path_3-3" x="62.885" y="0" width="27" height="27" filterUnits="userSpaceOnUse">
      <feOffset dy="-2" input="SourceAlpha"/>
      <feGaussianBlur result="blur-7"/>
      <feFlood flood-color="#577195" result="color-3"/>
      <feComposite operator="out" in="SourceGraphic" in2="blur-7"/>
      <feComposite operator="in" in="color-3"/>
      <feComposite operator="in" in2="SourceGraphic"/>
    </filter>
    <filter id="Path_7-3" x="83.535" y="1.8" width="2.282" height="4.7" filterUnits="userSpaceOnUse">
      <feOffset dx="0.5" dy="0.5" input="SourceAlpha"/>
      <feGaussianBlur result="blur-8"/>
      <feFlood flood-color="#663974"/>
      <feComposite operator="in" in2="blur-8"/>
      <feComposite in="SourceGraphic"/>
    </filter>
    <filter id="L" x="69.885" y="1" width="15" height="27" filterUnits="userSpaceOnUse">
      <feOffset dx="1" dy="1" input="SourceAlpha"/>
      <feGaussianBlur result="blur-9"/>
      <feFlood flood-color="#60356d"/>
      <feComposite operator="in" in2="blur-9"/>
      <feComposite in="SourceGraphic"/>
    </filter>
    <filter id="Path_3-4" x="89.885" y="0" width="27" height="27" filterUnits="userSpaceOnUse">
      <feOffset dy="-2" input="SourceAlpha"/>
      <feGaussianBlur result="blur-10"/>
      <feFlood flood-color="#577195" result="color-4"/>
      <feComposite operator="out" in="SourceGraphic" in2="blur-10"/>
      <feComposite operator="in" in="color-4"/>
      <feComposite operator="in" in2="SourceGraphic"/>
    </filter>
    <filter id="Path_7-4" x="110.535" y="1.8" width="2.282" height="4.7" filterUnits="userSpaceOnUse">
      <feOffset dx="0.5" dy="0.5" input="SourceAlpha"/>
      <feGaussianBlur result="blur-11"/>
      <feFlood flood-color="#663974"/>
      <feComposite operator="in" in2="blur-11"/>
      <feComposite in="SourceGraphic"/>
    </filter>
    <filter id="E" x="94.885" y="1" width="15" height="27" filterUnits="userSpaceOnUse">
      <feOffset dx="1" dy="1" input="SourceAlpha"/>
      <feGaussianBlur result="blur-12"/>
      <feFlood flood-color="#60356d"/>
      <feComposite operator="in" in2="blur-12"/>
      <feComposite in="SourceGraphic"/>
    </filter>
    <clipPath id="clip-path">
      <rect id="Rectangle_8" data-name="Rectangle 8" width="37.408" height="36.927" fill="#b2892d"/>
    </clipPath>
  </defs>
  <g id="Tile" transform="translate(8.885)">
    <g data-type="innerShadowGroup">
      <path id="Path_3-5" data-name="Path 3" d="M5,0H22a5,5,0,0,1,5,5V22a5,5,0,0,1-5,5H5a5,5,0,0,1-5-5V5A5,5,0,0,1,5,0Z" fill="#58baba"/>
      <g transform="matrix(1, 0, 0, 1, -8.89, 0)" filter="url(#Path_3)">
        <path id="Path_3-6" data-name="Path 3" d="M5,0H22a5,5,0,0,1,5,5V22a5,5,0,0,1-5,5H5a5,5,0,0,1-5-5V5A5,5,0,0,1,5,0Z" transform="translate(8.89)" fill="#fff"/>
      </g>
    </g>
    <g transform="matrix(1, 0, 0, 1, -8.89, 0)" filter="url(#Path_6)">
      <path id="Path_6-2" data-name="Path 6" d="M-6.058-14.994H6.08v2.268H1.313V0H-1.312V-12.726H-6.058Z" transform="translate(20.89 22)" fill="#fdf9c6"/>
    </g>
    <g transform="matrix(1, 0, 0, 1, -8.89, 0)" filter="url(#Path_7)">
      <path id="Path_7-5" data-name="Path 7" d="M-1.35-3.5A2.413,2.413,0,0,0-.93-3.54a1.311,1.311,0,0,0,.369-.12.946.946,0,0,0,.282-.216A.661.661,0,0,0-.126-4.2H.432V0h-.75V-2.964H-1.35Z" transform="translate(30.89 6)" fill="#fdf9c6"/>
    </g>
  </g>
  <g id="Tile-2" data-name="Tile" transform="translate(35.885)">
    <g data-type="innerShadowGroup">
      <path id="Path_3-7" data-name="Path 3" d="M5,0H22a5,5,0,0,1,5,5V22a5,5,0,0,1-5,5H5a5,5,0,0,1-5-5V5A5,5,0,0,1,5,0Z" fill="#58baba"/>
      <g transform="matrix(1, 0, 0, 1, -35.89, 0)" filter="url(#Path_3-2)">
        <path id="Path_3-8" data-name="Path 3" d="M5,0H22a5,5,0,0,1,5,5V22a5,5,0,0,1-5,5H5a5,5,0,0,1-5-5V5A5,5,0,0,1,5,0Z" transform="translate(35.89)" fill="#fff"/>
      </g>
    </g>
    <g transform="matrix(1, 0, 0, 1, -35.89, 0)" filter="url(#Path)">
      <path id="Path-2" data-name="Path" d="M-1.312-14.994H1.313V0H-1.312V-14.994Z" transform="translate(47.89 22)" fill="#fdf9c6"/>
    </g>
    <g transform="matrix(1, 0, 0, 1, -35.89, 0)" filter="url(#Path_7-2)">
      <path id="Path_7-6" data-name="Path 7" d="M-1.35-3.5A2.413,2.413,0,0,0-.93-3.54a1.311,1.311,0,0,0,.369-.12.946.946,0,0,0,.282-.216A.661.661,0,0,0-.126-4.2H.432V0h-.75V-2.964H-1.35Z" transform="translate(57.89 6)" fill="#fdf9c6"/>
    </g>
  </g>
  <g id="Tile-3" data-name="Tile" transform="translate(62.885)">
    <g data-type="innerShadowGroup">
      <path id="Path_3-9" data-name="Path 3" d="M5,0H22a5,5,0,0,1,5,5V22a5,5,0,0,1-5,5H5a5,5,0,0,1-5-5V5A5,5,0,0,1,5,0Z" fill="#58baba"/>
      <g transform="matrix(1, 0, 0, 1, -62.89, 0)" filter="url(#Path_3-3)">
        <path id="Path_3-10" data-name="Path 3" d="M5,0H22a5,5,0,0,1,5,5V22a5,5,0,0,1-5,5H5a5,5,0,0,1-5-5V5A5,5,0,0,1,5,0Z" transform="translate(62.89)" fill="#fff"/>
      </g>
    </g>
    <g transform="matrix(1, 0, 0, 1, -62.89, 0)" filter="url(#Path_7-3)">
      <path id="Path_7-7" data-name="Path 7" d="M-1.35-3.5A2.413,2.413,0,0,0-.93-3.54a1.311,1.311,0,0,0,.369-.12.946.946,0,0,0,.282-.216A.661.661,0,0,0-.126-4.2H.432V0h-.75V-2.964H-1.35Z" transform="translate(84.89 6)" fill="#fdf9c6"/>
    </g>
    <g transform="matrix(1, 0, 0, 1, -62.89, 0)" filter="url(#L)">
      <text id="L-2" data-name="L" transform="translate(76.89 22)" fill="#fdf9c6" font-size="22" font-family="HelveticaNeue-Medium, Helvetica Neue" font-weight="500"><tspan x="-6.314" y="0">L</tspan></text>
    </g>
  </g>
  <g id="Tile-4" data-name="Tile" transform="translate(89.885)">
    <g data-type="innerShadowGroup">
      <path id="Path_3-11" data-name="Path 3" d="M5,0H22a5,5,0,0,1,5,5V22a5,5,0,0,1-5,5H5a5,5,0,0,1-5-5V5A5,5,0,0,1,5,0Z" fill="#58baba"/>
      <g transform="matrix(1, 0, 0, 1, -89.89, 0)" filter="url(#Path_3-4)">
        <path id="Path_3-12" data-name="Path 3" d="M5,0H22a5,5,0,0,1,5,5V22a5,5,0,0,1-5,5H5a5,5,0,0,1-5-5V5A5,5,0,0,1,5,0Z" transform="translate(89.89)" fill="#fff"/>
      </g>
    </g>
    <g transform="matrix(1, 0, 0, 1, -89.89, 0)" filter="url(#Path_7-4)">
      <path id="Path_7-8" data-name="Path 7" d="M-1.35-3.5A2.413,2.413,0,0,0-.93-3.54a1.311,1.311,0,0,0,.369-.12.946.946,0,0,0,.282-.216A.661.661,0,0,0-.126-4.2H.432V0h-.75V-2.964H-1.35Z" transform="translate(111.89 6)" fill="#fdf9c6"/>
    </g>
    <g transform="matrix(1, 0, 0, 1, -89.89, 0)" filter="url(#E)">
      <text id="E-2" data-name="E" transform="translate(101.89 22)" fill="#fdf9c6" font-size="22" font-family="HelveticaNeue-Medium, Helvetica Neue" font-weight="500"><tspan x="-6.93" y="0">E</tspan></text>
    </g>
  </g>
  <path id="Path_2" data-name="Path 2" d="M-5.255-24.038a6.357,6.357,0,0,1,1.661.675A10.435,10.435,0,0,1-2.1-22.3,13.072,13.072,0,0,1-.782-21.026q.6.675,1.114,1.3a1.124,1.124,0,0,1,.219.694,2.492,2.492,0,0,1-.146.822,5.46,5.46,0,0,1-.365.822q-.219.4-.4.694a19.271,19.271,0,0,1-3.359,3.688,27.143,27.143,0,0,1-4.108,2.885,29.513,29.513,0,0,1-4.455,2.081A39.311,39.311,0,0,1-16.7-6.694a27.848,27.848,0,0,1-3.962.675A15.227,15.227,0,0,1-23.731-6a22.149,22.149,0,0,0-1.241,2.519q-.621,1.461-1.1,2.9a24.854,24.854,0,0,0-.73,2.665,5.125,5.125,0,0,0-.146,1.807.192.192,0,0,1,.091.2.378.378,0,0,1-.11.219.843.843,0,0,1-.256.164.47.47,0,0,1-.31.037,3.46,3.46,0,0,1-2.045-.876A3.917,3.917,0,0,1-30.559,2q-.365-1.314-.712-2.647a17.465,17.465,0,0,0-.84-2.483,8.146,8.146,0,0,0-1.2-2.008A4.193,4.193,0,0,0-35.087-6.4a1.728,1.728,0,0,1-.8-.584,1.727,1.727,0,0,1-.31-.749,1.627,1.627,0,0,1,.037-.694.539.539,0,0,1,.274-.383q.8-.329,1.68-.712t1.7-.822a11.243,11.243,0,0,0,1.5-.949,4.809,4.809,0,0,0,1.077-1.1q-.475-.146-1.807-.456a14.858,14.858,0,0,0-3.3-.31q-.11,0-.4-.31t-.6-.712q-.31-.4-.584-.749a4.277,4.277,0,0,1-.31-.42,1.071,1.071,0,0,1,.055-1.059,4.835,4.835,0,0,1,1.333-1.5,17.9,17.9,0,0,1,3.743-2.355A39.21,39.21,0,0,1-26.8-22.267q2.739-.895,5.733-1.552a49.03,49.03,0,0,1,5.879-.931,34.539,34.539,0,0,1,5.459-.11A17.048,17.048,0,0,1-5.255-24.038Zm-13.912,4.309a1.446,1.446,0,0,1,1.534,0,3.693,3.693,0,0,0,.6.493q.31.2.6.383.694.511.749.8a1.451,1.451,0,0,1-.383.913q-.694,1.1-1.625,2.355t-1.9,2.556q-.968,1.3-1.88,2.538t-1.57,2.3a21.931,21.931,0,0,0,4.108-.968,33.807,33.807,0,0,0,4.217-1.734,41.549,41.549,0,0,0,4.053-2.282,39.69,39.69,0,0,0,3.6-2.574,30.451,30.451,0,0,0,2.848-2.592,13.08,13.08,0,0,0,1.88-2.41.812.812,0,0,0,.11-.822,2.041,2.041,0,0,0-1.1-.6,21.6,21.6,0,0,0-7.266-.712,41.337,41.337,0,0,0-7.942,1.278,46.843,46.843,0,0,0-7.741,2.757,46.167,46.167,0,0,0-6.7,3.724q.475.11,1.041.2t1.077.219a6.731,6.731,0,0,1,.913.292,1.8,1.8,0,0,1,.584.347,6.892,6.892,0,0,1,1.114,1.588,1.17,1.17,0,0,1-.055,1.333,4.51,4.51,0,0,1-.931.8q-.675.475-1.461.968t-1.552.913q-.767.42-1.2.675a4.408,4.408,0,0,1,1.57,1.314,6.852,6.852,0,0,1,.913,1.716,11.432,11.432,0,0,1,.493,1.807q.164.895.274,1.552a26.592,26.592,0,0,1,1.5-5.112,39.651,39.651,0,0,1,2.538-5.221,39.072,39.072,0,0,1,3.286-4.82A33.627,33.627,0,0,1-19.167-19.729ZM-1.6-.377A6.054,6.054,0,0,0-1.9.974,2.451,2.451,0,0,0-.691,2.69a1.273,1.273,0,0,0,.621.219c2.191,0,8.142-6.1,11.319-9.567.11-.11-.073-.4-.256-.219C8.729-4.759,3.508.243,1.208.9A3.7,3.7,0,0,1,1.573-.341c1.1-2.337,4.382-6.317,4.564-5.952.146-.438-1.1-2.446-1.826-2.081a40.666,40.666,0,0,0-3.943,3.4C-1.531-3.371-6.643.316-7.848.718a.309.309,0,0,1-.256,0C-8.337.588-7.02-1.775-4.789-4.433A22.907,22.907,0,0,1-2.225-7.023c2.373-2.008,5.039-3.542,7.157-3.651A1.48,1.48,0,0,1,6.721-9.1a2.665,2.665,0,0,1-.4,1.314c-.037.037.037.073.11.037a2.978,2.978,0,0,0,.694-1.716c0-1.716-1.826-2.3-3.213-2.3-6.718,0-15.08,8.142-15.08,12.122A3.853,3.853,0,0,0-9.564,2.8a1.16,1.16,0,0,0,.329.11c1.534,0,8.654-6.134,9.749-7.23A15.493,15.493,0,0,0-1.6-.377ZM10.665-7.059A43.216,43.216,0,0,0,6.648-.377,3.483,3.483,0,0,0,6.1,1.485c.256,1.022,1.132,2.154,2.191,1.9-.8-.365,1.388-3.578,3.25-5.587A27.849,27.849,0,0,1,19.1-8.374c-.949,1.1-2.118,3.213-2.118,4.236,0,.438,1.1,1.716,1.753,1.716,2.519,0,6.9-4.09,7.558-4.966-.037-.073-.256-.037-.292,0-2.264,2.008-4.783,3.651-6.536,3.8C20.669-6.439,23.7-9.1,24.5-9.944c.256-.292-1.241-1.862-1.643-1.826a8.272,8.272,0,0,0-3.286,1.716A46.207,46.207,0,0,0,10.847-2.2a47.11,47.11,0,0,1,3.031-4.382c1.1-1.461,2.373-2.885,2.921-2.848.292.037.4.219.4.073A3.027,3.027,0,0,0,14.937-11.7a.869.869,0,0,0-.511.183A24.694,24.694,0,0,0,10.665-7.059ZM32.39-17.831c-4.09.475-8.106,1.5-7.96,3.14a2.244,2.244,0,0,0,1.935,1.862c-.949-.548,1.2-2.3,4.674-2.994-1.351,1.789-2.41,3.4-3.4,4.893C23.152-3.992,21.509-.414,21.509.682a.878.878,0,0,0,.11.548A4.01,4.01,0,0,0,22.933,2.69a1.282,1.282,0,0,0,1.168.146c2.191-.8,8.544-7.449,10.333-9.493a.168.168,0,0,0-.256-.219C32.025-4.905,25.964,1.047,24.394.864c.876-2.337,3.615-6.974,6.791-11.794,1.461-2.154,2.665-3.98,4.016-5.66a86.161,86.161,0,0,1,20.009-.329c.438.037.292-.037,0-.11a83.313,83.313,0,0,0-18.8-1.1c1.607-2.081,3.761-5,4.929-4.455.694.4-.767-1.716-2.812-1.607a2.745,2.745,0,0,0-1.351.73C36.26-22.724,35.238-21.555,32.39-17.831Zm15.7,9.2c.511-.548.986-.876,1.278-.84.256.037.4.219.4.073a3.128,3.128,0,0,0-2.264-2.373.762.762,0,0,0-.548.219C44.951-9.944,42.1-6.8,40.167-4.942c-1.716,1.68-5.44,4.966-7.193,5.7,0-1.059,1.789-4.272,3.651-6.682,1.241-1.643,2.739-3.4,3.323-3.323.292.037.4.219.4.073a3.022,3.022,0,0,0-2.264-2.373.743.743,0,0,0-.511.219,22.31,22.31,0,0,0-3.651,4.163C31.842-4.284,29.834-.6,29.834.974A2.271,2.271,0,0,0,31.55,2.836h.292C34.033,2.4,39.182-3.079,42.869-6.84,37.721-.925,32.755,8.751,30.856,12.914a18.376,18.376,0,0,0-1.534,4.236c-.11.657.438,2.665,1.9,2.519a.587.587,0,0,0,.4-.11c.4-1.753,5.221-9.42,10.443-13.583,0,0,0-.219-.183-.219-1.059.329-6.353,5.185-9.238,9.165,2.154-4.053,7.96-14.459,10.808-18C45.06-5.051,46.557-7.023,48.091-8.629Z" transform="matrix(0.985, -0.174, 0.174, 0.985, 80.269, 46.678)" fill="#ff90ad"/>
  <g id="Group_10" data-name="Group 10" transform="matrix(0.996, -0.087, 0.087, 0.996, -0.86, 21.284)">
    <g id="Group_10-2" data-name="Group 10" transform="matrix(0.999, 0.035, -0.035, 0.999, 2.017, 1.55)" clip-path="url(#clip-path)">
      <path id="Path_8" data-name="Path 8" d="M240.118,254.835q-2.821-1.069-5.641-2.137c-.979-.37-1.96-.735-2.9-1.086,1.34-.543,2.713-1.039,4.033-1.651a10.7,10.7,0,0,0,3.488-2.64c.073.166.137.293.186.424q1,2.688,2,5.378c.326.879.183,1.262-.632,1.712Z" transform="translate(-204.039 -217.908)" fill="#ebc97c"/>
      <path id="Path_9" data-name="Path 9" d="M107.575,91.3c-.962-2.363-1.808-4.772-2.7-7.163a2.319,2.319,0,0,0-1.949-1.552,5.508,5.508,0,0,0-2.986.511,21.256,21.256,0,0,0-6.178,4.146,27.288,27.288,0,0,0-6.088,7.726,7.177,7.177,0,0,0-.887,3.234c-.115,1.845,1.769,2.971,3.454,2.834A28.776,28.776,0,0,0,101,97.842a20.593,20.593,0,0,0,6.211-4.628,1.592,1.592,0,0,0,.367-1.912m-4.644-6.083a9.881,9.881,0,0,1-.528,1.959,19.282,19.282,0,0,1-3.709,5.355,24.1,24.1,0,0,1-6.709,5.361,24.422,24.422,0,0,1-2.339.911l-.046-.121c-.55.009-.763-.144-.636-.681a10.771,10.771,0,0,1,.811-2.428,24.794,24.794,0,0,1,5.833-7.124,17.986,17.986,0,0,1,4.894-3.279,9.625,9.625,0,0,1,1.873-.5.435.435,0,0,1,.554.547" transform="translate(-76.459 -72.723)" fill="#ebc97c"/>
      <path id="Path_10" data-name="Path 10" d="M162.026,184.475c.608,1.64,1.207,3.236,1.78,4.842a.692.692,0,0,1-.133.514,9.1,9.1,0,0,1-3.772,3.026,22.791,22.791,0,0,1-6.566,1.827.824.824,0,0,1-.386-.045q-2.795-1.022-5.585-2.058a.966.966,0,0,1-.149-.1c5.587-1.473,10.741-3.68,14.814-8" transform="translate(-129.704 -162.536)" fill="#ebc97c"/>
      <path id="Path_11" data-name="Path 11" d="M112.015,6.842a14.746,14.746,0,0,1-1.523-.189A1.85,1.85,0,0,1,109.2,3.991a16.093,16.093,0,0,1,.916-1.482c-.375-.089-.735-.192-1.1-.26-.642-.119-.779-.311-.65-.965.054-.274.1-.55.158-.823a.511.511,0,0,1,.6-.455A5.452,5.452,0,0,1,111.4.7a1.979,1.979,0,0,1,.7,2.865c-.189.319-.407.622-.633.964.381.031.743.055,1.1.091a1.924,1.924,0,0,1,1.552,3.07c-.224.378-.491.732-.777,1.153.407.095.774.194,1.147.264.617.116.762.321.64.947-.054.274-.1.549-.159.823a.524.524,0,0,1-.623.472,5.742,5.742,0,0,1-2.161-.628,2,2,0,0,1-.783-2.974c.184-.306.4-.6.6-.9" transform="translate(-95.438 0)" fill="#fdfd47"/>
      <path id="Path_12" data-name="Path 12" d="M7.134,107.093c.346-.232.651-.454.972-.648a2.08,2.08,0,0,1,3.069.771,5.873,5.873,0,0,1,.689,2.333.537.537,0,0,1-.469.636c-.344.076-.691.146-1.039.2-.48.076-.706-.09-.81-.565-.078-.357-.157-.713-.24-1.069a1.8,1.8,0,0,0-.1-.242c-.119.079-.224.147-.328.218-.313.211-.611.448-.94.631a2,2,0,0,1-3.1-1.625c-.041-.4-.064-.793-.1-1.227-.335.225-.638.444-.956.637a2.088,2.088,0,0,1-3.112-.807,6.044,6.044,0,0,1-.663-2.266.536.536,0,0,1,.45-.648c.38-.085.763-.163,1.148-.213.4-.052.607.109.7.518.1.447.2.9.312,1.389.454-.308.836-.587,1.238-.834a2.019,2.019,0,0,1,3.171,1.532c.051.409.068.822.1,1.278" transform="translate(0 -90.927)" fill="#b22da8"/>
      <path id="Path_13" data-name="Path 13" d="M4.2,35.716a16.43,16.43,0,0,1,7.637,2.541,22.421,22.421,0,0,1,6.446,5.926c.335.457.307.613-.162.931-.246.166-.5.321-.736.5-.337.255-.56.153-.824-.146a39.962,39.962,0,0,0-2.944-3.2A16.663,16.663,0,0,0,5.746,38.08a14.522,14.522,0,0,0-1.672-.22c-.368-.032-.539-.19-.529-.56.009-.327,0-.654,0-.98.007-.483.16-.62.657-.6" transform="translate(-3.122 -31.467)" fill="#2db28e"/>
      <path id="Path_14" data-name="Path 14" d="M40.125,178.84l-1.8.858a.778.778,0,0,1-1.037-.367l-.858-1.8A.778.778,0,0,1,36.8,176.5l1.8-.858a.778.778,0,0,1,1.037.367l.858,1.8a.778.778,0,0,1-.367,1.037" transform="translate(-32.034 -154.684)" fill="#2d8eb2"/>
      <path id="Path_15" data-name="Path 15" d="M187.642,27.176l-1.863-.7a.778.778,0,0,1-.455-1l.7-1.863a.778.778,0,0,1,1-.455l1.863.7a.778.778,0,0,1,.455,1l-.7,1.863a.778.778,0,0,1-1,.455" transform="translate(-163.24 -20.359)" fill="#d55638"/>
      <path id="Path_16" data-name="Path 16" d="M49.083,4.069l-1.863-.7a.778.778,0,0,1-.455-1L47.464.5a.778.778,0,0,1,1-.455l1.863.7a.778.778,0,0,1,.455,1l-.7,1.863a.778.778,0,0,1-1,.455" transform="translate(-41.159 0)" fill="#ad2db2"/>
    </g>
  </g>
</svg>
